<svg width="19" height="19" viewBox="0 0 19 19" fill="none" xmlns="http://www.w3.org/2000/svg">
<path d="M4.43412 5.90623C2.34317 6.37968 1.29769 6.61599 1.04865 7.41584C0.800454 8.21485 1.51274 9.0487 2.93815 10.7156L3.30705 11.1465C3.71164 11.62 3.91478 11.8571 4.00573 12.1495C4.09668 12.4428 4.06608 12.759 4.00488 13.3905L3.94878 13.966C3.73374 16.1904 3.62579 17.3023 4.27687 17.7961C4.92796 18.29 5.90713 17.8395 7.86379 16.9385L8.37123 16.7056C8.92711 16.4488 9.20506 16.3213 9.5 16.3213C9.79494 16.3213 10.0729 16.4488 10.6296 16.7056L11.1354 16.9385C13.0929 17.8395 14.072 18.29 14.7223 17.797C15.3742 17.3023 15.2663 16.1904 15.0512 13.966M16.0618 10.7156C17.4873 9.04955 18.1995 8.2157 17.9514 7.41584C17.7032 6.61599 16.6568 6.37883 14.5659 5.90623L14.0253 5.78383C13.4312 5.64953 13.1345 5.58238 12.8957 5.40133C12.6568 5.22028 12.5047 4.94573 12.1987 4.39662L11.9199 3.89682C10.843 1.96561 10.3049 1 9.5 1C8.69507 1 8.15703 1.96561 7.08011 3.89682" stroke="#F6F2ED" stroke-width="2" stroke-linecap="round"/>
</svg>
