<svg width="15" height="15" viewBox="0 0 15 15" fill="none" xmlns="http://www.w3.org/2000/svg">
<path fill-rule="evenodd" clip-rule="evenodd" d="M4.99626 1.9525C5.03751 1.88131 5.09676 1.82224 5.16807 1.78121C5.23938 1.74017 5.32024 1.71863 5.40251 1.71875H9.59814C9.6803 1.71874 9.76103 1.74034 9.83222 1.78136C9.90341 1.82239 9.96257 1.88141 10.0038 1.9525L14.1556 9.12875C14.1982 9.20204 14.2201 9.2855 14.219 9.37024C14.2179 9.45498 14.1938 9.53784 14.1494 9.61L12.0181 13.0587C11.9762 13.1268 11.9175 13.1829 11.8477 13.2218C11.7779 13.2608 11.6993 13.2812 11.6194 13.2812H3.38126C3.30134 13.2812 3.22275 13.2608 3.15296 13.2218C3.08317 13.1829 3.0245 13.1268 2.98251 13.0587L0.851261 9.61C0.806811 9.53784 0.782756 9.45498 0.781656 9.37024C0.780555 9.2855 0.80245 9.20204 0.845011 9.12875L4.99626 1.9525ZM5.40314 3.12125L1.79626 9.35625L3.37001 11.9044L4.99689 9.12875L4.99751 9.12688L6.94689 5.77625L5.40314 3.12125ZM7.48939 6.70813L6.21689 8.895H8.76064L7.48939 6.70813ZM9.84564 8.895H12.9375L9.32751 2.65625H6.21689L9.84564 8.895ZM12.9094 9.8325H5.67064L4.19876 12.3438H11.3581L12.9094 9.8325Z" fill="#F56B80"/>
</svg>
