<svg width="11" height="15" viewBox="0 0 11 15" fill="none" xmlns="http://www.w3.org/2000/svg">
<path d="M5.50006 5.41687H3.41693M5.50006 5.41687V1.25H3.41693C2.86437 1.25 2.33444 1.4695 1.94372 1.86022C1.553 2.25095 1.3335 2.78088 1.3335 3.33344C1.3335 3.886 1.553 4.41593 1.94372 4.80665C2.33444 5.19737 2.86437 5.41687 3.41693 5.41687M5.50006 5.41687V9.58313H3.41693M5.50006 5.41687H7.58318M3.41693 5.41687C2.86445 5.41687 2.3346 5.63635 1.94394 6.02701C1.55328 6.41767 1.33381 6.94752 1.33381 7.5C1.33381 8.05248 1.55328 8.58233 1.94394 8.97299C2.3346 9.36365 2.86445 9.58313 3.41693 9.58313M3.41693 9.58313C3.00496 9.58313 2.60223 9.70528 2.25968 9.93415C1.91712 10.163 1.65012 10.4883 1.49244 10.8689C1.33475 11.2495 1.29346 11.6683 1.37379 12.0724C1.45412 12.4765 1.65245 12.8477 1.94372 13.139C2.23499 13.4304 2.60611 13.6288 3.01015 13.7093C3.4142 13.7897 3.83303 13.7486 4.21368 13.591C4.59433 13.4334 4.91971 13.1665 5.14869 12.824C5.37766 12.4815 5.49994 12.0789 5.50006 11.6669M7.58318 5.41687C7.0307 5.41687 6.50085 5.63635 6.11019 6.02701C5.71953 6.41767 5.50006 6.94752 5.50006 7.5C5.50006 8.05248 5.71953 8.58233 6.11019 8.97299C6.50085 9.36365 7.0307 9.58313 7.58318 9.58313C8.13566 9.58313 8.66551 9.36365 9.05618 8.97299C9.44684 8.58233 9.66631 8.05248 9.66631 7.5C9.66631 6.94752 9.44684 6.41767 9.05618 6.02701C8.66551 5.63635 8.13566 5.41687 7.58318 5.41687ZM7.58318 5.41687C8.13575 5.41687 8.66568 5.19737 9.0564 4.80665C9.44712 4.41593 9.66662 3.886 9.66662 3.33344C9.66662 2.78088 9.44712 2.25095 9.0564 1.86022C8.66568 1.4695 8.13575 1.25 7.58318 1.25" stroke="#F56B80" stroke-width="0.9375" stroke-linecap="round" stroke-linejoin="round"/>
</svg>
