<svg width="40" height="41" viewBox="0 0 40 41" fill="none" xmlns="http://www.w3.org/2000/svg">
<path opacity="0.5" d="M36.6583 17.9667C36.5717 18.9667 35.76 19.9767 34.4067 20.9167M36.6583 17.9667C36.7033 17.4533 36.555 16.9733 36.2383 16.5317C35.595 15.6383 34.2533 14.905 32.405 14.3833C35.1667 15.1633 36.795 16.4133 36.6583 17.9667ZM36.6583 17.9667C36.6382 18.1838 36.5877 18.3969 36.5083 18.6C36.336 19.0161 36.0917 19.3987 35.7867 19.73C35.1933 20.3967 34.3167 21.0433 33.215 21.65C32.5283 22.03 31.7517 22.3917 30.9017 22.7333C32.2883 22.1783 33.475 21.5633 34.4067 20.9167M36.6583 17.9667C36.8167 16.15 34.5617 14.7467 30.9017 14.0267M34.4067 20.9167C31.4283 22.985 25.8183 24.72 19.4933 25.3C10.2933 26.145 3.05999 24.2333 3.34165 21.0267M3.34165 21.0267C3.36182 20.8096 3.41231 20.5964 3.49165 20.3933C3.63832 20.0133 3.87888 19.6361 4.21332 19.2617C4.80665 18.5967 5.68332 17.95 6.78499 17.3417M3.34165 21.0267C3.20499 22.58 4.83332 23.83 7.59665 24.61C5.74665 24.0883 4.40499 23.355 3.76332 22.46C3.45039 22.0508 3.30016 21.5401 3.34165 21.0267ZM3.34165 21.0267C3.42832 20.025 4.23999 19.015 5.59332 18.0767M5.59332 18.0767C6.52499 17.43 7.71332 16.815 9.09832 16.26C8.24832 16.6 7.47165 16.9633 6.78499 17.3433C8.36832 16.47 10.42 15.6817 12.775 15.0483M5.59332 18.0767C7.52165 16.7383 10.5533 15.5383 14.1667 14.7017M33.2167 21.6517C31.6317 22.5233 29.58 23.3117 27.225 23.9433" stroke="#F56B80" stroke-width="2" stroke-linecap="round"/>
<path d="M25.4567 32.4167C25.89 32.6889 26.3083 32.9239 26.7117 33.1217C28.18 33.8383 29.44 34.0383 30.3367 33.605C30.7967 33.3833 31.1333 33.0083 31.3533 32.5033C31.5567 32.03 31.66 31.445 31.6667 30.7633M25.4567 32.4167C22.4333 30.5083 18.7933 26.81 15.6367 22.18C10.3983 14.4967 8.46832 7.14333 11.3133 5.735M25.4567 32.4167C24.81 32.0083 24.1333 31.5167 23.44 30.9517M31.6667 30.7633C31.6733 29.9683 31.5467 29.0417 31.2967 28.0167M31.6667 30.7633C31.6783 29.3367 31.265 27.4917 30.4683 25.4067M11.3133 5.735L11.3283 5.72666C11.5183 5.63444 11.7233 5.57111 11.9433 5.53666C12.3383 5.47 12.78 5.495 13.2617 5.59833C14.1217 5.78166 15.1033 6.22666 16.1633 6.89C16.4122 7.04555 16.6644 7.21278 16.92 7.39166C17.3478 7.69166 17.7833 8.02222 18.2267 8.38333L20.185 9.97333M11.3133 5.735C9.93665 6.41667 9.67665 8.48833 10.3683 11.315" stroke="#F56B80" stroke-width="2" stroke-linecap="round"/>
<path d="M19.6083 16.6983C19.585 18.215 19.575 18.9733 20.0516 19.25C20.5283 19.5267 21.1816 19.1367 22.485 18.3583L22.8216 18.1583C23.1916 17.935 23.3766 17.825 23.58 17.8C23.785 17.7733 23.9833 17.835 24.3833 17.96L24.7466 18.0717C26.1516 18.5083 26.8533 18.7267 27.2766 18.3383C27.6983 17.9467 27.56 17.2067 27.285 15.7283L27.215 15.345C27.1366 14.925 27.0983 14.7133 27.1433 14.5083C27.1883 14.3033 27.3166 14.125 27.57 13.7717L27.8 13.4483C28.6916 12.2 29.1366 11.5767 28.92 11.06C28.7033 10.5433 27.965 10.475 26.4933 10.3383L26.1116 10.3033C25.695 10.265 25.485 10.245 25.3083 10.1433C25.1333 10.0433 25.0116 9.87167 24.77 9.52833L24.5483 9.21667C23.695 8.00833 23.2683 7.405 22.7116 7.475C22.155 7.545 21.8366 8.24333 21.2016 9.63833L21.0383 10C20.8566 10.3967 20.7666 10.595 20.6116 10.7383C20.4566 10.88 20.2566 10.9517 19.8533 11.095L19.4866 11.225C18.0666 11.725 17.3566 11.975 17.23 12.5367C17.1033 13.0983 17.6433 13.5967 18.725 14.595L19.0033 14.8533C19.31 15.1367 19.465 15.28 19.5433 15.47C19.6233 15.6583 19.62 15.875 19.6133 16.305L19.6083 16.6983Z" stroke="#F56B80" stroke-width="2"/>
</svg>
