<svg width="25" height="25" viewBox="0 0 25 25" fill="none" xmlns="http://www.w3.org/2000/svg">
<path d="M6.57813 6.43329C6.31771 5.7687 6.32813 5.00933 6.44375 4.31454C7.23954 4.55366 7.98705 4.93094 8.65209 5.42912C8.94375 5.65204 9.32605 5.72391 9.6823 5.61662C10.5963 5.34248 11.5458 5.20488 12.5 5.20829C13.501 5.20829 14.4521 5.35412 15.3156 5.61558C15.6719 5.72391 16.0542 5.65099 16.3448 5.42808C17.0095 4.93 17.7567 4.55273 18.5521 4.31349C18.6677 5.00829 18.6771 5.76766 18.4188 6.4312C18.2625 6.8312 18.3406 7.29162 18.6354 7.6187C19.3896 8.45516 19.7917 9.41662 19.7917 10.4166C19.7917 12.6187 17.7396 14.7781 14.4438 15.4354C13.6188 15.6 13.2969 16.6385 13.9281 17.2333C14.3333 17.6145 14.5833 18.152 14.5833 18.75V21.875C14.5833 22.1512 14.6931 22.4162 14.8884 22.6115C15.0838 22.8069 15.3487 22.9166 15.625 22.9166C15.9013 22.9166 16.1662 22.8069 16.3616 22.6115C16.5569 22.4162 16.6667 22.1512 16.6667 21.875V18.75C16.6667 18.1562 16.5417 17.5916 16.3188 17.0802C19.4615 15.9895 21.875 13.5343 21.875 10.4166C21.875 9.01349 21.3708 7.72391 20.5344 6.6437C20.7531 5.78954 20.7333 4.92912 20.65 4.2687C20.576 3.67704 20.4729 2.90204 20.0563 2.43954C19.4365 1.75308 18.4104 2.15724 17.6813 2.4062C16.8987 2.66997 16.1544 3.03599 15.4677 3.49474C14.498 3.24691 13.5009 3.12266 12.5 3.12495C11.4646 3.12495 10.4656 3.25516 9.53021 3.49579C8.84353 3.03703 8.09924 2.67101 7.31667 2.40724C6.5875 2.15724 5.56042 1.75308 4.94063 2.43954C4.51563 2.91037 4.42709 3.62391 4.35105 4.23016L4.34584 4.26974C4.2625 4.9312 4.24375 5.79266 4.4625 6.64787C3.62917 7.72704 3.125 9.01454 3.125 10.4166C3.125 13.5333 5.53855 15.9895 8.68125 17.0802C8.45418 17.6004 8.33578 18.1615 8.33334 18.7291L8.15834 18.7645C7.41146 18.8677 6.93334 18.775 6.60834 18.6375C5.81667 18.302 5.40834 17.4572 4.91042 16.8114C4.60001 16.4104 4.14792 15.9093 3.45417 15.6781C3.32435 15.6349 3.18729 15.6176 3.05082 15.6274C2.91434 15.6371 2.78112 15.6736 2.65876 15.7349C2.41164 15.8585 2.22376 16.0753 2.13646 16.3375C2.04916 16.5996 2.06959 16.8858 2.19324 17.1329C2.3169 17.38 2.53366 17.5679 2.79584 17.6552C3.37709 17.8489 3.77917 18.8447 4.14792 19.2864C4.53646 19.7531 5.05313 20.2406 5.79375 20.5552C6.50417 20.8572 7.33855 20.9645 8.33334 20.8427V21.875C8.33334 22.1512 8.44308 22.4162 8.63844 22.6115C8.83379 22.8069 9.09874 22.9166 9.375 22.9166C9.65127 22.9166 9.91622 22.8069 10.1116 22.6115C10.3069 22.4162 10.4167 22.1512 10.4167 21.875V18.75C10.4167 18.152 10.6667 17.6145 11.0719 17.2333C11.7042 16.6375 11.3813 15.6 10.5563 15.4354C7.25938 14.7781 5.20834 12.6187 5.20834 10.4166C5.20834 9.4187 5.60938 8.45724 6.3625 7.62079C6.6573 7.2937 6.73438 6.83329 6.57813 6.43329Z" fill="#F56B80"/>
</svg>
