<svg width="15" height="15" viewBox="0 0 15 15" fill="none" xmlns="http://www.w3.org/2000/svg">
<path d="M5.37213 9.38998V7.49998V5.60998C5.37213 5.17283 5.87999 4.8964 6.29356 5.10855L9.98034 6.99962C10.0757 7.04394 10.1564 7.11459 10.2129 7.20323C10.2695 7.29188 10.2995 7.39483 10.2995 7.49998C10.2995 7.60512 10.2695 7.70807 10.2129 7.79672C10.1564 7.88536 10.0757 7.95601 9.98034 8.00033L6.29463 9.89141C5.87999 10.1035 5.37213 9.82712 5.37213 9.38998ZM0.653559 6.57748C0.583579 7.14425 0.583579 7.71748 0.653559 8.28426ZM3.33749 1.92748C3.79345 1.58326 4.29004 1.29647 4.81606 1.07355ZM1.14427 4.7464C1.36686 4.22044 1.65329 3.72386 1.99713 3.26783Z" fill="#F56B80"/>
<path d="M0.653559 6.57748C0.583579 7.14425 0.583579 7.71748 0.653559 8.28426M3.33749 1.92748C3.79345 1.58326 4.29004 1.29647 4.81606 1.07355M1.14427 4.7464C1.36686 4.22044 1.65329 3.72386 1.99713 3.26783M5.37213 9.38998C5.37213 9.82712 5.87999 10.1035 6.29463 9.89141L9.98034 8.00033C10.0757 7.95601 10.1564 7.88536 10.2129 7.79672C10.2695 7.70807 10.2995 7.60512 10.2995 7.49998C10.2995 7.39483 10.2695 7.29188 10.2129 7.20323C10.1564 7.11459 10.0757 7.04394 9.98034 6.99962L6.29356 5.10855C5.87999 4.8964 5.37213 5.17283 5.37213 5.60998V7.49998V9.38998Z" stroke="#F56B80" stroke-linecap="round" stroke-linejoin="round"/>
<path d="M7.5128 0.535706C11.3164 0.535706 14.3989 3.65356 14.3989 7.49999C14.3989 11.3464 11.3164 14.4643 7.5128 14.4643C4.89208 14.4643 2.61316 12.9836 1.44958 10.8043" stroke="#F56B80" stroke-linecap="round" stroke-linejoin="round"/>
</svg>
