<svg width="128" height="132" viewBox="0 0 128 132" fill="none" xmlns="http://www.w3.org/2000/svg">
<path d="M46.11 46.1186C37.1871 48.1086 32.7277 49.1056 31.6652 52.4714C30.6026 55.8371 33.6452 59.3417 39.7304 66.355L41.3008 68.1641C43.029 70.1582 43.891 71.1553 44.2794 72.388C44.672 73.6207 44.5397 74.9502 44.2794 77.6049L44.0404 80.0282C43.1229 89.3849 42.6621 94.0633 45.4401 96.1416C48.2181 98.22 52.3958 96.3267 60.747 92.5361L62.9105 91.5516C65.2831 90.4746 66.4694 89.9361 67.7283 89.9361C68.9871 89.9361 70.1735 90.4746 72.5503 91.5516L74.7096 92.5361C83.0608 96.3225 87.2385 98.2242 90.0165 96.1416C92.7945 94.0633 92.3379 89.3849 91.4162 80.0282M95.7262 66.355C101.811 59.3417 104.854 55.8371 103.791 52.4714C102.729 49.1056 98.2695 48.1086 89.3465 46.1186L87.0422 45.6053C84.5031 45.0373 83.2357 44.7555 82.2201 43.994C81.2002 43.2367 80.5473 42.0797 79.2415 39.77L78.0552 37.6664C73.4593 29.5424 71.1635 25.4783 67.7283 25.4783C64.2931 25.4783 61.9973 29.5424 57.4014 37.6664" stroke="#F56B80" stroke-width="10" stroke-linecap="round"/>
<path d="M27.8208 3C27.8208 3 29.5374 11.6899 33.3042 15.4269C37.0591 19.1639 45.7609 20.8208 45.7609 20.8208C45.7609 20.8208 37.071 22.5374 33.334 26.3042C29.597 30.0591 27.94 38.7609 27.94 38.7609C27.94 38.7609 26.2235 30.071 22.4567 26.334C18.7018 22.597 10 20.94 10 20.94C10 20.94 18.6899 19.2235 22.4269 15.4567C26.1639 11.7018 27.8208 3 27.8208 3Z" stroke="#FAB6C0" stroke-width="4.5" stroke-linejoin="round"/>
<path d="M99.9131 30.0761H108.598H117.283M108.598 38.7609V21.3914" stroke="#FAB6C0" stroke-width="5" stroke-linecap="round"/>
</svg>
