<svg width="8" height="8" viewBox="0 0 8 8" fill="none" xmlns="http://www.w3.org/2000/svg">
<path d="M7.50362 0.904419C7.50362 0.738659 7.43778 0.579687 7.32057 0.462477C7.20336 0.345267 7.04438 0.279419 6.87862 0.279419L1.87862 0.248169C1.71286 0.248169 1.55389 0.314017 1.43668 0.431227C1.31947 0.548438 1.25362 0.707409 1.25362 0.873169C1.25362 1.03893 1.31947 1.1979 1.43668 1.31511C1.55389 1.43232 1.71286 1.49817 1.87862 1.49817H5.35362L0.184874 6.67942C0.126294 6.73752 0.0797974 6.80665 0.048067 6.88281C0.0163366 6.95897 0 7.04066 0 7.12317C0 7.20568 0.0163366 7.28737 0.048067 7.36353C0.0797974 7.43969 0.126294 7.50882 0.184874 7.56692C0.242976 7.6255 0.312101 7.672 0.388263 7.70373C0.464426 7.73546 0.546117 7.75179 0.628624 7.75179C0.711131 7.75179 0.792822 7.73546 0.868984 7.70373C0.945147 7.672 1.01427 7.6255 1.07237 7.56692L6.25362 2.38567V5.87317C6.25362 6.03893 6.31947 6.1979 6.43668 6.31511C6.55389 6.43232 6.71286 6.49817 6.87862 6.49817C7.04438 6.49817 7.20336 6.43232 7.32057 6.31511C7.43778 6.1979 7.50362 6.03893 7.50362 5.87317V0.904419Z" fill="#FAB6C0"/>
</svg>
