<svg width="35" height="36" viewBox="0 0 35 36" fill="none" xmlns="http://www.w3.org/2000/svg">
<path d="M29.1666 28.2083V15.8125C29.1666 15.5861 29.1139 15.3628 29.0127 15.1603C28.9114 14.9578 28.7644 14.7816 28.5833 14.6458L18.375 6.98954C18.1225 6.80022 17.8155 6.69788 17.5 6.69788C17.1844 6.69788 16.8774 6.80022 16.625 6.98954L6.41665 14.6458C6.23553 14.7816 6.08852 14.9578 5.98727 15.1603C5.88602 15.3628 5.83331 15.5861 5.83331 15.8125V28.2083C5.83331 28.5951 5.98696 28.966 6.26045 29.2395C6.53394 29.513 6.90487 29.6666 7.29165 29.6666H13.125C13.5118 29.6666 13.8827 29.513 14.1562 29.2395C14.4297 28.966 14.5833 28.5951 14.5833 28.2083V23.8333C14.5833 23.4465 14.737 23.0756 15.0104 22.8021C15.2839 22.5286 15.6549 22.375 16.0416 22.375H18.9583C19.3451 22.375 19.716 22.5286 19.9895 22.8021C20.263 23.0756 20.4166 23.4465 20.4166 23.8333V28.2083C20.4166 28.5951 20.5703 28.966 20.8438 29.2395C21.1173 29.513 21.4882 29.6666 21.875 29.6666H27.7083C28.0951 29.6666 28.466 29.513 28.7395 29.2395C29.013 28.966 29.1666 28.5951 29.1666 28.2083Z" stroke="#F56B80" stroke-width="2" stroke-linecap="round" stroke-linejoin="round"/>
</svg>
