<svg width="32" height="32" viewBox="0 0 32 32" fill="none" xmlns="http://www.w3.org/2000/svg">
<path d="M13.8655 11.056C14.815 9.352 15.2905 8.5 16 8.5C16.7095 8.5 17.185 9.352 18.1345 11.056L18.3805 11.497C18.6505 11.9815 18.7855 12.223 18.9955 12.382C19.2055 12.5425 19.4695 12.6025 19.993 12.721L20.47 12.829C22.315 13.246 23.2375 13.4545 23.4565 14.161C23.677 14.866 23.047 15.601 21.79 17.0725L21.4645 17.4535C21.1075 17.8705 20.929 18.0805 20.8495 18.3385C20.767 18.5965 20.794 18.8755 20.8495 19.4335L20.8975 19.9405C21.088 21.9025 21.1825 22.8835 20.608 23.32C20.0335 23.755 19.171 23.359 17.443 22.564L16.996 22.357C16.5055 22.132 16.261 22.018 16 22.018C15.7405 22.018 15.4945 22.132 15.004 22.357L14.557 22.564C12.829 23.359 11.9665 23.7565 11.392 23.32C10.8175 22.885 10.912 21.9025 11.1025 19.9405L11.1505 19.4335C11.206 18.8755 11.233 18.5965 11.1505 18.3385C11.071 18.0805 10.8925 17.8705 10.5355 17.4535L10.21 17.0725C8.953 15.6025 8.323 14.8675 8.5435 14.161C8.7625 13.456 9.6835 13.246 11.5285 12.829L12.007 12.721C12.532 12.601 12.793 12.5425 13.0045 12.3835C13.2145 12.223 13.3495 11.9815 13.6195 11.4985L13.8655 11.056Z" stroke="#F56B80" stroke-width="2"/>
<path opacity="0.5" d="M16 1V4M16 28V31M1 16H4M28 16H31" stroke="#F56B80" stroke-width="2" stroke-linecap="round"/>
<path d="M7 25L7.5145 24.4855M24.4855 7.5145L25 7M25 25L24.4855 24.4855M7.5145 7.5145L7 7" stroke="#F56B80" stroke-width="2" stroke-linecap="round"/>
</svg>
