<svg width="24" height="25" viewBox="0 0 24 25" fill="none" xmlns="http://www.w3.org/2000/svg">
<path d="M9 2.5C9.26522 2.5 9.51957 2.60536 9.70711 2.79289C9.89464 2.98043 10 3.23478 10 3.5V4.5H14V3.5C14 3.23478 14.1054 2.98043 14.2929 2.79289C14.4804 2.60536 14.7348 2.5 15 2.5C15.2652 2.5 15.5196 2.60536 15.7071 2.79289C15.8946 2.98043 16 3.23478 16 3.5V4.5H19C19.5304 4.5 20.0391 4.71071 20.4142 5.08579C20.7893 5.46086 21 5.96957 21 6.5V19.5C21 20.0304 20.7893 20.5391 20.4142 20.9142C20.0391 21.2893 19.5304 21.5 19 21.5H5C4.46957 21.5 3.96086 21.2893 3.58579 20.9142C3.21071 20.5391 3 20.0304 3 19.5V6.5C3 5.96957 3.21071 5.46086 3.58579 5.08579C3.96086 4.71071 4.46957 4.5 5 4.5H8V3.5C8 3.23478 8.10536 2.98043 8.29289 2.79289C8.48043 2.60536 8.73478 2.5 9 2.5ZM8 6.5H5V9.5H19V6.5H16V7.5C16 7.76522 15.8946 8.01957 15.7071 8.20711C15.5196 8.39464 15.2652 8.5 15 8.5C14.7348 8.5 14.4804 8.39464 14.2929 8.20711C14.1054 8.01957 14 7.76522 14 7.5V6.5H10V7.5C10 7.76522 9.89464 8.01957 9.70711 8.20711C9.51957 8.39464 9.26522 8.5 9 8.5C8.73478 8.5 8.48043 8.39464 8.29289 8.20711C8.10536 8.01957 8 7.76522 8 7.5V6.5ZM19 11.5H5V19.5H19V11.5Z" fill="#F56B80"/>
</svg>
