<svg width="20" height="23" viewBox="0 0 20 23" fill="none" xmlns="http://www.w3.org/2000/svg">
<path d="M10 11.5C12.7614 11.5 15 9.26142 15 6.5C15 3.73858 12.7614 1.5 10 1.5C7.23858 1.5 5 3.73858 5 6.5C5 9.26142 7.23858 11.5 10 11.5Z" stroke="#F56B80" stroke-width="2"/>
<path d="M15 13.5H15.352C16.0831 13.5002 16.7889 13.7674 17.3369 14.2513C17.8849 14.7352 18.2373 15.4026 18.328 16.128L18.719 19.252C18.7542 19.5334 18.7291 19.8191 18.6454 20.0901C18.5617 20.3611 18.4214 20.6112 18.2336 20.8238C18.0459 21.0364 17.8151 21.2066 17.5566 21.3232C17.298 21.4398 17.0176 21.5001 16.734 21.5H3.266C2.98238 21.5001 2.70199 21.4398 2.44345 21.3232C2.1849 21.2066 1.9541 21.0364 1.76638 20.8238C1.57865 20.6112 1.43829 20.3611 1.3546 20.0901C1.27092 19.8191 1.24583 19.5334 1.281 19.252L1.671 16.128C1.7617 15.4022 2.11442 14.7346 2.66283 14.2506C3.21125 13.7667 3.91758 13.4997 4.649 13.5H5" stroke="#F56B80" stroke-width="2" stroke-linecap="round" stroke-linejoin="round"/>
</svg>
