<svg width="21" height="21" viewBox="0 0 21 21" fill="none" xmlns="http://www.w3.org/2000/svg">
<path d="M11.9639 13.7235C12.5527 14.6562 12.8476 15.1235 12.6464 15.5041C12.4451 15.8847 11.8834 15.9302 10.7581 16.0177L10.4667 16.0405C10.1474 16.0659 9.98723 16.0781 9.84723 16.1516C9.70723 16.2251 9.60399 16.3511 9.39661 16.6031L9.20761 16.8333C8.47611 17.7205 8.11036 18.165 7.69386 18.1073C7.27736 18.0504 7.08486 17.5298 6.70074 16.4903L6.60099 16.2208C6.49161 15.925 6.43736 15.7771 6.32974 15.6695C6.22211 15.5628 6.07424 15.5076 5.77849 15.3982L5.50986 15.2994C4.46861 14.9144 3.94886 14.7219 3.89199 14.3054C3.83511 13.8889 4.27874 13.5231 5.16686 12.7916L5.39611 12.6035C5.64811 12.3953 5.77499 12.292 5.84849 12.152C5.92199 12.012 5.93424 11.8528 5.95874 11.5325L5.98149 11.2411C6.06899 10.1159 6.11274 9.55325 6.49511 9.35288C6.87661 9.15163 7.34386 9.4465 8.27661 10.0354L8.51811 10.1876C8.78323 10.3547 8.91536 10.4388 9.06849 10.4589C9.22074 10.4808 9.37649 10.4361 9.68711 10.3478L9.97061 10.2673C11.0652 9.95663 11.613 9.80088 11.9061 10.094C12.1992 10.3863 12.0435 10.934 11.732 12.0286M19.1012 17.4843C18.6725 18.3978 17.3775 18.5859 15.6179 18.1519M19.1012 17.4843C19.5676 16.4903 18.9166 14.8339 17.5 12.9955M19.1012 17.4843C18.5491 18.6603 16.5664 18.634 14 17.6295M19.1012 17.4843C19.8607 15.8638 17.6522 12.4854 14 9.4255M1.89874 5.26575C1.43324 6.25975 2.08336 7.91525 3.49999 9.75363M1.89874 5.26575C2.32749 4.35225 3.62249 4.16413 5.38211 4.59725M1.89874 5.26575C1.28011 6.5835 2.62586 9.06412 5.11524 11.5911M1.89874 5.26575C2.69411 3.5735 6.46186 4.37413 10.6627 7M16.5331 2.97062C16.6197 3.77913 16.9584 4.53687 17.5 5.13187M16.5331 2.97062C15.7194 3.64175 15.4569 3.766 14.4314 3.96375M16.5331 2.97062L16.8035 2.625M14.4314 3.96375C14.9752 4.56306 15.313 5.32011 15.3974 6.125M14.4314 3.96375L14 3.94975" stroke="#F56B80" stroke-width="2" stroke-linecap="round"/>
</svg>
