<svg width="40" height="41" viewBox="0 0 40 41" fill="none" xmlns="http://www.w3.org/2000/svg">
<mask id="mask0_82_123" style="mask-type:luminance" maskUnits="userSpaceOnUse" x="1" y="2" width="27" height="29">
<path d="M1.62662 2.13641H27.76V30.1806H1.62662V2.13641Z" fill="white"/>
</mask>
<g mask="url(#mask0_82_123)">
<path d="M20.4812 2.13649C18.9782 2.14128 17.9362 2.27367 16.6767 2.49107C12.9575 3.13846 12.2799 4.49815 12.2799 7.00378V10.8333H20.9789V12.766H7.74477C5.19685 12.766 2.96696 13.9661 2.26039 16.8428C1.46206 20.1447 1.42623 22.2126 2.26039 25.6604C2.89352 28.2318 4.28831 30.1596 6.83706 30.1596H10.3477V25.2275C10.3477 22.3615 12.9439 19.5301 15.919 19.5301H22.9131C25.3518 19.5301 27.7459 17.7309 27.7459 15.3005V7.00378C27.7459 4.6469 26.0457 2.8844 23.6689 2.48919C23.7279 2.48336 21.9716 2.13065 20.4812 2.13649ZM15.6638 6.00169C16.4574 6.00169 17.1137 6.65586 17.1137 7.45315C17.1137 8.25805 16.4574 8.90065 15.6638 8.90065C14.8548 8.90065 14.2139 8.25899 14.2139 7.45315C14.2139 6.65878 14.8548 6.00169 15.6638 6.00169Z" fill="#0277BD"/>
</g>
<mask id="mask1_82_123" style="mask-type:luminance" maskUnits="userSpaceOnUse" x="12" y="10" width="27" height="29">
<path d="M12.2667 10.8203H38.4V38.8561H12.2667V10.8203Z" fill="white"/>
</mask>
<g mask="url(#mask1_82_123)">
<path d="M19.5445 38.8564C21.0476 38.8515 22.0895 38.7191 23.349 38.5017C27.0684 37.8543 27.7459 36.4948 27.7459 33.989V30.1595H19.0468V28.2269H32.282C34.83 28.2269 37.0597 27.0267 37.7663 24.1501C38.5647 20.8481 38.6005 18.7802 37.7663 15.3324C37.1322 12.761 35.7376 10.8332 33.1887 10.8332H29.6781V15.7653C29.6781 18.6314 27.0819 21.4627 24.1068 21.4627H17.1127C14.674 21.4627 12.2798 23.2619 12.2798 25.6923V33.989C12.2798 36.3459 13.9801 38.1084 16.3568 38.5037C16.2979 38.5094 18.0541 38.8622 19.5445 38.8564ZM24.363 34.9911C23.5693 34.9911 22.9131 34.3369 22.9131 33.5398C22.9131 32.7348 23.5693 32.0921 24.363 32.0921C25.1719 32.0921 25.8128 32.7338 25.8128 33.5398C25.8128 34.334 25.171 34.9911 24.363 34.9911Z" fill="#FFC107"/>
</g>
</svg>
