<svg width="40" height="41" viewBox="0 0 40 41" fill="none" xmlns="http://www.w3.org/2000/svg">
<mask id="mask0_82_112" style="mask-type:luminance" maskUnits="userSpaceOnUse" x="0" y="0" width="40" height="41">
<path d="M40 0.5H0V40.5H40V0.5Z" fill="white"/>
</mask>
<g mask="url(#mask0_82_112)">
<path d="M20 0.506653C31.045 0.506653 40 9.59761 40 20.8102C40 30.3242 33.5466 38.2849 24.8466 40.4878C24.94 40.2137 25 39.8956 25 39.5014V36.0311C25.8117 36.0311 27.1716 36.0311 27.5133 36.0311C28.8817 36.0311 30.0983 35.4339 30.6883 34.324C31.3433 33.0905 31.4567 31.204 33.08 30.0501C33.5617 29.666 33.195 29.2277 32.64 29.287C31.615 29.5814 30.765 30.2954 29.965 31.3545C29.1683 32.4155 28.7933 32.6556 27.305 32.6556C26.5833 32.6556 25.5033 32.6133 24.4867 32.451C23.94 31.0416 22.9949 29.7438 21.84 29.1313C28.5 28.4359 31.6783 25.0723 31.6783 20.5056C31.6783 18.5396 30.8533 16.6379 29.4516 15.0356C29.9116 13.4452 30.49 10.2016 29.275 8.96647C26.2784 8.96647 24.4667 10.9394 24.0317 11.4723C22.5384 10.9529 20.8983 10.6584 19.175 10.6584C17.4483 10.6584 15.8017 10.9529 14.305 11.4756C13.875 10.946 12.0617 8.96647 9.05838 8.96647C7.83828 10.2033 8.42337 13.4603 8.8883 15.0474C7.49495 16.6463 6.67502 18.543 6.67502 20.5056C6.67502 25.0689 9.84829 28.4309 16.4984 29.1296C14.6683 30.0991 13.3333 32.8232 13.3333 34.8755V39.5014C13.3333 39.6773 13.3717 39.8042 13.3917 39.9548C5.59829 37.1817 0 29.6694 0 20.8102C0 9.59761 8.95504 0.506653 20 0.506653Z" fill="black"/>
</g>
</svg>
