<svg width="40" height="41" viewBox="0 0 40 41" fill="none" xmlns="http://www.w3.org/2000/svg">
<path d="M30.2 13.2197L27.56 15.8597C31.88 20.1797 31.88 27.1397 27.56 31.3797C23.24 35.6997 16.28 35.6997 12.04 31.3797C7.72 27.0597 7.72 20.0997 12.04 15.8597L18.88 9.01966L19.84 8.05966V2.89966L9.52 13.2197C3.76 18.9797 3.76 28.2597 9.52 34.0197C15.28 39.7797 24.56 39.7797 30.2 34.0197C35.96 28.2197 35.96 18.9797 30.2 13.2197Z" fill="#EE4C2C" stroke="#EE4C2C" stroke-width="1.5"/>
<path d="M25.0399 9.48926C25.3502 9.48926 25.6477 9.61266 25.8671 9.83203C26.0865 10.0514 26.2098 10.3489 26.2098 10.6592C26.2098 10.9695 26.0865 11.2669 25.8671 11.4863C25.6477 11.7057 25.3502 11.8291 25.0399 11.8291C24.7296 11.8291 24.4322 11.7057 24.2128 11.4863C23.9934 11.2669 23.87 10.9694 23.87 10.6592C23.87 10.3489 23.9934 10.0514 24.2128 9.83203C24.4322 9.61263 24.7296 9.48928 25.0399 9.48926Z" fill="#EE4C2C" stroke="#EE4C2C" stroke-width="1.5"/>
</svg>
