<svg width="40" height="41" viewBox="0 0 40 41" fill="none" xmlns="http://www.w3.org/2000/svg">
<g clip-path="url(#clip0_113_355)">
<path d="M18.4824 0.5H25.0192V30.4592C21.6712 31.0924 19.206 31.3416 16.5392 31.3416C8.55599 31.3336 4.39999 27.7668 4.39999 20.9168C4.39999 14.3168 8.80799 10.0332 15.6392 10.0332C16.6992 10.0332 17.5068 10.1168 18.4824 10.3668V0.5ZM18.7116 15.7656C17.946 15.5156 17.3152 15.4324 16.5076 15.4324C13.2016 15.4324 11.2916 17.4488 11.2916 20.9832C11.2916 24.424 13.1176 26.324 16.4656 26.324C17.1888 26.324 17.7776 26.2832 18.7116 26.158V15.7656Z" fill="#2BA977"/>
<path d="M35.708 10.8376V25.8376C35.708 31.0036 35.3212 33.4876 34.1856 35.6296C33.1256 37.6884 31.7292 38.9868 28.8436 40.4212L22.7784 37.5628C25.6636 36.222 27.06 35.0368 27.952 33.2288C28.8856 31.3796 29.18 29.2376 29.18 23.6044V10.8376H35.708ZM28.5216 0.5H35.0584V7.1416H28.5212L28.5216 0.5Z" fill="#2BA977"/>
</g>
<defs>
<clipPath id="clip0_113_355">
<rect width="40" height="40" fill="white" transform="translate(0 0.5)"/>
</clipPath>
</defs>
</svg>
