<svg width="40" height="40" viewBox="0 0 40 40" fill="none" xmlns="http://www.w3.org/2000/svg">
<g clip-path="url(#clip0_113_511)">
<mask id="mask0_113_511" style="mask-type:luminance" maskUnits="userSpaceOnUse" x="0" y="0" width="40" height="40">
<path d="M0 0H40V40H0V0Z" fill="white"/>
</mask>
<g mask="url(#mask0_113_511)">
<path d="M10.7512 10.8232L8.1812 8.25323V26.7872L8.2172 27.6556C8.2172 28.054 8.2896 28.5244 8.4344 28.9952L28.7784 36.1624L33.8464 33.9184L10.7512 10.8232Z" fill="#00C4B3"/>
<path d="M33.846 33.9184L28.778 36.1624L8.4704 28.9952C8.8688 30.4792 9.7012 32.1444 10.6424 33.0856L17.2668 39.6736L32.036 39.71L33.846 33.9184Z" fill="#22D3C5"/>
<path d="M8.2536 8.25323L0.362004 20.1988C-0.289596 20.8868 0.0364038 22.3348 1.086 23.4204L5.6472 28.0176L8.5068 29.0312C8.3984 28.5608 8.2896 28.09 8.2896 27.692L8.2536 26.8232V8.25323Z" fill="#0075C9"/>
<path d="M28.9232 8.47042C28.4819 8.36894 28.0344 8.29638 27.5836 8.25322L26.6788 8.21722H8.1812L33.846 33.882L36.0904 28.814L28.9232 8.47042Z" fill="#0075C9"/>
<path d="M33.0136 10.6424C32.0724 9.7012 30.4436 8.8324 28.9232 8.4704L36.0904 28.8144L33.8464 33.8824L39.348 32.108V17.0132L33.0136 10.6424Z" fill="#00A8E1"/>
<path d="M27.9096 5.64682L23.312 1.08562C22.2624 0.0360223 20.8144 -0.289978 20.0904 0.361622L8.14481 8.25322H26.6424L27.5476 8.28922C27.9456 8.28922 28.4164 8.36162 28.8868 8.50642L27.9096 5.64682Z" fill="#00C4B3"/>
</g>
</g>
<defs>
<clipPath id="clip0_113_511">
<rect width="40" height="40" fill="white"/>
</clipPath>
</defs>
</svg>
