<svg width="40" height="41" viewBox="0 0 40 41" fill="none" xmlns="http://www.w3.org/2000/svg">
<path d="M16.6319 21.6546C16.6319 21.6546 15.6254 22.2671 17.332 22.4422C19.3888 22.7047 20.4828 22.6609 22.7582 22.2234C22.7582 22.2234 23.3708 22.6172 24.2023 22.9234C19.0825 25.1111 12.6058 22.7921 16.632 21.6546H16.6319ZM15.9756 18.8106C15.9756 18.8106 14.8816 19.6419 16.5882 19.8171C18.82 20.0358 20.5704 20.0795 23.5896 19.467C23.5896 19.467 23.9835 19.9045 24.6399 20.1232C18.4699 21.9609 11.5555 20.2982 15.9754 18.8107L15.9756 18.8106ZM28.0534 23.798C28.0534 23.798 28.7973 24.4105 27.2219 24.8919C24.29 25.767 14.9258 26.0295 12.2999 24.8919C11.3809 24.4982 13.1313 23.9293 13.7001 23.8418C14.2689 23.7105 14.5753 23.7105 14.5753 23.7105C13.5689 23.0105 7.88007 25.1544 11.6871 25.767C22.1455 27.4733 30.7661 25.0232 28.0533 23.7979L28.0534 23.798ZM17.1136 15.835C17.1136 15.835 12.3439 16.9725 15.407 17.3664C16.7199 17.5414 19.3016 17.4976 21.7084 17.3225C23.6775 17.1475 25.6467 16.7974 25.6467 16.7974C25.6467 16.7974 24.9466 17.1036 24.4652 17.4099C19.608 18.6787 10.2875 18.1099 12.9564 16.7974C15.2318 15.7035 17.1135 15.8348 17.1135 15.8348L17.1136 15.835ZM25.6466 20.6041C30.5476 18.0664 28.2721 15.6162 26.6968 15.9225C26.303 16.0099 26.128 16.0974 26.128 16.0974C26.128 16.0974 26.2592 15.8349 26.5655 15.7474C29.6724 14.6535 32.123 19.0287 25.5591 20.7352C25.5591 20.7352 25.6029 20.6914 25.6466 20.604V20.6041ZM17.5949 27.5171C22.3208 27.8233 29.5403 27.3421 29.7165 25.1106C29.7165 25.1106 29.3664 25.9857 25.8219 26.642C21.7961 27.3858 16.8077 27.2982 13.8765 26.817C13.8765 26.817 14.4891 27.3421 17.596 27.517L17.5949 27.5171Z" fill="#4E7896"/>
<mask id="mask0_82_144" style="mask-type:luminance" maskUnits="userSpaceOnUse" x="9" y="1" width="21" height="39">
<path d="M9.83951 1.39618H29.2528V39.5932H9.83951V1.39618Z" fill="white"/>
</mask>
<g mask="url(#mask0_82_144)">
<path d="M22.6704 1.39618C22.6704 1.39618 25.3835 4.15253 20.0886 8.3091C15.844 11.6782 19.1259 13.6034 20.0886 15.791C17.5944 13.5595 15.8002 11.5907 17.0255 9.75305C18.8199 7.04035 23.765 5.72857 22.6707 1.39618H22.6704ZM21.271 13.9536C22.54 15.3974 20.9209 16.7101 20.9209 16.7101C20.9209 16.7101 24.159 15.0475 22.6712 12.9911C21.3147 11.0222 20.2645 10.0597 25.9531 6.77899C25.9531 6.77899 16.9826 9.01045 21.2708 13.9545L21.271 13.9536ZM18.0322 37.4485V33.1607C18.0322 32.0667 17.4196 31.3229 15.888 31.3229C15.0128 31.3229 14.2689 31.5417 13.6125 31.8034L13.8313 32.591C14.3119 32.416 14.9253 32.241 15.5818 32.241C16.4132 32.241 16.807 32.591 16.807 33.2911V33.8598H16.3695C14.2689 33.8598 13.3062 34.6474 13.3062 35.9162C13.3062 36.9663 13.9626 37.5789 15.1442 37.5789C15.8881 37.5789 16.457 37.2288 16.9822 36.7913L17.0697 37.4475H18.0324L18.0322 37.4485ZM16.8069 36.0484C16.3694 36.4422 15.888 36.661 15.4503 36.661C14.8814 36.661 14.5314 36.3109 14.5314 35.6984C14.5314 35.0858 14.8815 34.6483 16.2818 34.6483H16.807V36.0474L16.8069 36.0484ZM22.1456 37.4485H20.614L18.7763 31.4542H20.0892L21.2269 35.1295L21.4894 36.2233C22.0582 34.6482 22.4959 33.0293 22.6709 31.4542H23.9836C23.6335 33.4232 23.0209 35.567 22.1459 37.4485H22.1456ZM29.2345 37.4485V33.1607C29.2345 32.0667 28.6219 31.3229 27.0903 31.3229C26.2151 31.3229 25.4712 31.5417 24.8148 31.8034L24.9899 32.591C25.5151 32.416 26.1276 32.241 26.784 32.241C27.6155 32.241 28.0093 32.591 28.0093 33.2911V33.8598H27.5718C25.4713 33.8598 24.5086 34.6474 24.5086 35.9162C24.5086 36.9663 25.1212 37.5789 26.3027 37.5789C27.0904 37.5789 27.6593 37.2288 28.1843 36.7913L28.2718 37.4475H29.2345V37.4485ZM28.0093 36.0484C27.5718 36.4422 27.0904 36.661 26.6527 36.661C26.0838 36.661 25.7338 36.3109 25.7338 35.6984C25.7338 35.0858 26.0839 34.6483 27.4841 34.6483H28.0094V36.0474L28.0093 36.0484ZM11.95 38.4548C11.5999 38.98 11.0748 39.3736 10.4183 39.5924L9.84915 38.8928C10.2867 38.6303 10.7244 38.2366 10.8994 37.8864C11.0744 37.5801 11.1182 37.1425 11.1182 36.1363V29.3108H12.431V36.0489C12.431 37.4051 12.2998 37.9302 11.9505 38.4553L11.95 38.4548Z" fill="#F58219"/>
</g>
</svg>
