<svg width="40" height="41" viewBox="0 0 40 41" fill="none" xmlns="http://www.w3.org/2000/svg">
<mask id="mask0_82_154" style="mask-type:luminance" maskUnits="userSpaceOnUse" x="33" y="18" width="7" height="8">
<path d="M33.12 18.8999H39.3079V25.8866H33.12V18.8999Z" fill="white"/>
</mask>
<g mask="url(#mask0_82_154)">
<path d="M36.2175 18.9003C36.1235 18.9003 36.032 18.9197 35.9511 18.9655L33.3906 20.4449C33.2249 20.5404 33.1242 20.7209 33.1242 20.9127V23.8663C33.1242 24.058 33.2249 24.2382 33.3906 24.334L34.0593 24.7195C34.3842 24.8798 34.504 24.8772 34.6519 24.8772C35.1329 24.8772 35.4074 24.5852 35.4074 24.0776V21.1636C35.4074 21.1224 35.3718 21.0929 35.3314 21.0929H35.0107C34.9695 21.0929 34.9345 21.1231 34.9345 21.1636V24.079C34.9345 24.3039 34.7004 24.5302 34.3202 24.34L33.6251 23.9321C33.6006 23.9188 33.5816 23.8943 33.5816 23.8669V20.9134C33.5816 20.8853 33.6004 20.8568 33.6251 20.8426L36.1802 19.3686C36.2042 19.3548 36.2327 19.3548 36.2564 19.3686L38.8115 20.8426C38.8359 20.8572 38.855 20.8845 38.855 20.9134V23.8669C38.855 23.8951 38.841 23.924 38.817 23.9376L36.2565 25.4117C36.2338 25.4248 36.2036 25.4248 36.1804 25.4117L35.5225 25.0201C35.5029 25.0087 35.4762 25.0095 35.4573 25.0201C35.2758 25.123 35.2416 25.135 35.0714 25.1942C35.0294 25.2088 34.9656 25.2315 35.0932 25.303L35.9521 25.8095C36.0339 25.8568 36.1249 25.8801 36.2185 25.8801C36.3134 25.8801 36.4031 25.8575 36.4849 25.8095L39.0455 24.3353C39.2112 24.2389 39.3119 24.0594 39.3119 23.8676V20.9141C39.3119 20.7222 39.2112 20.5422 39.0455 20.4463L36.4849 18.9669C36.4047 18.9211 36.3126 18.9017 36.2185 18.9017L36.2175 18.9003ZM36.9025 21.0107C36.1734 21.0107 35.7392 21.3213 35.7392 21.8375C35.7392 22.3969 36.1701 22.5515 36.8699 22.6206C37.7071 22.7027 37.7724 22.8257 37.7724 22.9905C37.7724 23.2766 37.5446 23.3985 37.0059 23.3985C36.3292 23.3985 36.1805 23.2295 36.1307 22.892C36.1247 22.8559 36.0969 22.8268 36.06 22.8268H35.7275C35.7175 22.827 35.708 22.8291 35.6987 22.833C35.6895 22.8369 35.6813 22.8424 35.6742 22.8495C35.6671 22.8567 35.6616 22.8648 35.6577 22.874C35.6538 22.8832 35.6517 22.8928 35.6515 22.9029C35.6515 23.334 35.8859 23.8439 37.0051 23.8439C37.8154 23.8439 38.2827 23.5264 38.2827 22.9681C38.2827 22.4163 37.9052 22.2671 37.1193 22.163C36.326 22.0572 36.2495 22.0066 36.2495 21.8203C36.2495 21.6667 36.3137 21.4613 36.9019 21.4613C37.4272 21.4613 37.6214 21.5747 37.7011 21.9291C37.7081 21.9623 37.7373 21.9895 37.7717 21.9895H38.1042C38.1245 21.9895 38.1443 21.977 38.1586 21.9623C38.1724 21.9467 38.1823 21.9291 38.1804 21.9079C38.129 21.2975 37.7221 21.0104 36.9027 21.0104L36.9025 21.0107Z" fill="#83CD29"/>
</g>
<mask id="mask1_82_154" style="mask-type:luminance" maskUnits="userSpaceOnUse" x="0" y="15" width="32" height="11">
<path d="M0.6875 15.0068H31.1196V25.9402H0.6875V15.0068Z" fill="white"/>
</mask>
<g mask="url(#mask1_82_154)">
<path d="M21.1637 15.0287C21.1346 15.0289 21.1074 15.036 21.0821 15.0505C21.0698 15.0578 21.0586 15.0665 21.0485 15.0766C21.0384 15.0868 21.0298 15.098 21.0227 15.1104C21.0155 15.1228 21.0101 15.1359 21.0063 15.1498C21.0027 15.1635 21.0007 15.1777 21.0007 15.192V19.3529C21.0007 19.3937 20.9816 19.4303 20.9462 19.4508C20.9286 19.4611 20.9095 19.4662 20.8891 19.4662C20.8687 19.4662 20.8497 19.4611 20.832 19.4508L20.1524 19.0593C20.1278 19.0449 20.1015 19.0341 20.0738 19.0266C20.0462 19.0192 20.0181 19.0154 19.9894 19.0154C19.9608 19.0154 19.9327 19.0192 19.9049 19.0266C19.8773 19.0341 19.8511 19.0449 19.8263 19.0593L17.1138 20.6257C17.0123 20.6842 16.9506 20.7969 16.9506 20.914V24.0469C16.9505 24.0755 16.9542 24.1037 16.9616 24.1315C16.969 24.1591 16.9798 24.1854 16.9941 24.2102C17.0085 24.235 17.0258 24.2576 17.046 24.2778C17.0663 24.2981 17.0888 24.3154 17.1137 24.3297L19.8265 25.8961C19.8512 25.9106 19.8774 25.9215 19.9052 25.929C19.9328 25.9364 19.9609 25.9401 19.9895 25.9401C20.0182 25.9401 20.0463 25.9364 20.074 25.929C20.1016 25.9215 20.1279 25.9106 20.1527 25.8961L22.8655 24.3297C22.8903 24.3154 22.9128 24.2981 22.9331 24.2778C22.9534 24.2576 22.9707 24.235 22.9849 24.2102C22.9993 24.1854 23.0102 24.1591 23.0176 24.1315C23.0249 24.1037 23.0286 24.0755 23.0286 24.0469V16.2362C23.0286 16.1174 22.9637 16.0059 22.8601 15.948L21.2454 15.0447C21.2199 15.0306 21.1919 15.0281 21.1638 15.0283L21.1637 15.0287ZM3.71266 18.9395C3.66089 18.9417 3.61234 18.9506 3.56589 18.9776L0.853178 20.5441C0.828282 20.5583 0.805782 20.5756 0.78547 20.5958C0.765157 20.6161 0.747866 20.6386 0.733595 20.6634C0.71922 20.6883 0.708386 20.7146 0.701095 20.7423C0.693699 20.77 0.690053 20.7982 0.690157 20.8269L0.695678 25.0315C0.695678 25.09 0.725886 25.1443 0.777241 25.1728C0.827657 25.203 0.890157 25.203 0.940261 25.1728L2.54943 24.2481C2.65151 24.1876 2.71797 24.0821 2.71797 23.9654V22.0017C2.71797 21.8845 2.77953 21.7771 2.8812 21.7189L3.5662 21.3219C3.61662 21.2925 3.67089 21.278 3.72922 21.2783C3.78755 21.2779 3.84193 21.2925 3.89234 21.3219L4.57703 21.7186C4.67859 21.7769 4.74016 21.8844 4.74016 22.0014V23.9649C4.74016 24.0818 4.80818 24.1879 4.90859 24.2477L6.51776 25.1724C6.56839 25.2026 6.63078 25.2026 6.68089 25.1724C6.73068 25.1436 6.76245 25.0894 6.76245 25.031L6.76787 20.8266C6.76807 20.7978 6.76443 20.7697 6.75714 20.7419C6.74974 20.7142 6.73901 20.6879 6.72464 20.663C6.71026 20.6382 6.69297 20.6156 6.67266 20.5954C6.65234 20.5752 6.62974 20.5579 6.60484 20.5437L3.89214 18.9778C3.8463 18.9509 3.79745 18.9419 3.74537 18.9397H3.71287L3.71266 18.9395ZM28.0894 18.9776C28.0311 18.9775 27.9767 18.992 27.9263 19.0211L25.2135 20.5877C25.1122 20.6462 25.0503 20.7533 25.0503 20.8704V24.0033C25.0503 24.1211 25.1166 24.2278 25.2188 24.286L27.9098 25.8206C28.0091 25.8774 28.1305 25.8817 28.2306 25.8259L29.8615 24.9176C29.9132 24.8889 29.9482 24.8352 29.9484 24.7762C29.9485 24.7173 29.9179 24.6642 29.8667 24.6349L27.1376 23.0683C27.0865 23.0392 27.0507 22.9801 27.0507 22.9215V21.9418C27.0507 21.8832 27.0869 21.8296 27.1376 21.8004L27.9857 21.3108C28.0361 21.2817 28.0981 21.2817 28.1489 21.3108L28.9989 21.8004C29.0113 21.8075 29.0226 21.8161 29.0328 21.8262C29.0429 21.8364 29.0515 21.8477 29.0587 21.8601C29.0659 21.8725 29.0713 21.8856 29.075 21.8995C29.0786 21.9133 29.0805 21.9274 29.0805 21.9418V22.7141C29.0804 22.7284 29.0822 22.7425 29.0859 22.7564C29.0896 22.7702 29.0951 22.7833 29.1021 22.7957C29.1093 22.8082 29.118 22.8195 29.1281 22.8296C29.1383 22.8397 29.1495 22.8483 29.1619 22.8555C29.2128 22.8848 29.2744 22.885 29.3252 22.8555L30.9505 21.9091C31.0513 21.8503 31.1136 21.7429 31.1136 21.6262V20.8703C31.1136 20.8417 31.11 20.8135 31.1026 20.7858C31.0952 20.7581 31.0842 20.7319 31.07 20.7071C31.0556 20.6822 31.0383 20.6597 31.0181 20.6394C30.9979 20.6192 30.9753 20.6019 30.9505 20.5875L28.254 19.021C28.2036 18.9918 28.1492 18.9773 28.0909 18.9775L28.0894 18.9776ZM19.9782 21.3166C19.9936 21.3165 20.0081 21.3201 20.0217 21.3274L20.9513 21.8658C20.9765 21.8804 20.9948 21.9074 20.9948 21.9366V23.0134C20.9948 23.0427 20.9767 23.0697 20.9513 23.0842L20.0217 23.6226C19.9964 23.637 19.9655 23.637 19.9401 23.6226L19.0105 23.0842C18.9852 23.0696 18.9669 23.0426 18.9669 23.0134V21.9369C18.9669 21.9076 18.9853 21.8809 19.0105 21.8661L19.9401 21.3277C19.9528 21.3204 19.964 21.317 19.9782 21.317V21.3166Z" fill="#404137"/>
</g>
<path d="M11.8621 18.9614C11.8038 18.9613 11.7494 18.9758 11.6989 19.005L8.98608 20.566C8.88473 20.6246 8.82306 20.7373 8.82306 20.8542V23.9872C8.82296 24.0158 8.8266 24.044 8.834 24.0717C8.84139 24.0994 8.85223 24.1257 8.8665 24.1505C8.88087 24.1754 8.89817 24.1979 8.91837 24.2181C8.93869 24.2384 8.96129 24.2556 8.98608 24.2699L11.6989 25.8364C11.7237 25.8508 11.7498 25.8617 11.7775 25.8691C11.8051 25.8766 11.8334 25.8804 11.862 25.8804C11.8906 25.8804 11.9188 25.8766 11.9464 25.8691C11.9741 25.8617 12.0002 25.8508 12.025 25.8364L14.7379 24.2699C14.7626 24.2556 14.7852 24.2383 14.8055 24.2181C14.8258 24.1978 14.8431 24.1753 14.8573 24.1504C14.8717 24.1256 14.8825 24.0993 14.8899 24.0716C14.8973 24.0439 14.901 24.0158 14.901 23.9872V20.8543C14.901 20.7373 14.8393 20.6246 14.7377 20.5661L12.0249 19.0051C11.9745 18.9758 11.9201 18.9613 11.8618 18.9615L11.8621 18.9614ZM28.0845 21.7572C28.0737 21.7572 28.0617 21.7572 28.0519 21.7625L27.5299 22.0672C27.5201 22.0726 27.5122 22.0802 27.5064 22.09C27.5006 22.0997 27.4975 22.1102 27.4973 22.1214V22.7198C27.4973 22.7424 27.5105 22.7629 27.5299 22.7742L28.0519 23.0734C28.061 23.079 28.071 23.0818 28.0817 23.0818C28.0924 23.0818 28.1024 23.079 28.1116 23.0734L28.6335 22.7742C28.6527 22.7631 28.6661 22.7424 28.6661 22.7198V22.1214C28.6661 22.0989 28.6528 22.0784 28.6335 22.0671L28.1116 21.7624C28.1019 21.7566 28.0952 21.7571 28.0844 21.7571L28.0845 21.7572Z" fill="#83CD29"/>
</svg>
