<svg width="40" height="41" viewBox="0 0 40 41" fill="none" xmlns="http://www.w3.org/2000/svg">
<mask id="mask0_82_134" style="mask-type:luminance" maskUnits="userSpaceOnUse" x="0" y="22" width="17" height="9">
<path d="M0.826874 22.9268H16.6669V30.6446H0.826874V22.9268Z" fill="white"/>
</mask>
<g mask="url(#mask0_82_134)">
<path d="M0.850952 28.8923H2.11272V23.9095L4.06606 28.2549C4.29647 28.7788 4.6121 28.967 5.23074 28.967C5.84939 28.967 6.15272 28.7808 6.38345 28.2549L8.33699 23.9095V28.8942H9.59897V23.9177C9.59897 23.4323 9.40439 23.1975 9.00418 23.0763C8.04585 22.7769 7.40272 23.0358 7.11168 23.6831L5.19481 27.9717L3.33824 23.6813C3.05918 23.034 2.40408 22.775 1.44564 23.0744C1.04512 23.1957 0.850952 23.4305 0.850952 23.9158V28.8923ZM10.6477 24.8352H11.9091V27.5816C11.8973 27.7309 11.9569 28.0812 12.6481 28.0918C13.0008 28.0974 15.3699 28.0918 15.392 28.0918V24.8216H16.6562C16.6618 24.8216 16.6548 29.2805 16.655 29.2996C16.6619 30.3993 15.291 30.6382 14.6593 30.6567H10.6752V29.8074L14.6664 29.8072C15.4783 29.7212 15.3826 29.3176 15.3826 29.1816V28.8504H12.7008C11.4531 28.8392 10.6588 28.2942 10.6488 27.6675C10.6478 27.6114 10.6757 24.8621 10.648 24.835L10.6477 24.8352Z" fill="#00618A"/>
</g>
<path d="M17.6288 28.8926H21.2564C21.681 28.8926 22.0937 28.8038 22.4215 28.6498C22.9676 28.3991 23.2344 28.0592 23.2344 27.6141V26.6918C23.2344 26.3275 22.9311 25.9878 22.3368 25.7613C22.0213 25.6396 21.6331 25.5751 21.2571 25.5751H19.7282C19.2188 25.5751 18.976 25.4213 18.9155 25.0816C18.9033 25.0412 18.9033 25.0067 18.9033 24.9682V24.3938C18.9033 24.3615 18.9033 24.3289 18.9155 24.2885C18.976 24.0296 19.1096 23.9566 19.5584 23.9143C19.5949 23.9143 19.6433 23.9061 19.68 23.9061H23.2833V23.0648H19.7406C19.2309 23.0648 18.9641 23.0971 18.7213 23.1699C17.9681 23.4047 17.6404 23.7789 17.6404 24.4262V25.1625C17.6404 25.7291 18.2837 26.2145 19.3632 26.3277C19.4848 26.3358 19.6059 26.3438 19.7271 26.3438H21.0375C21.0861 26.3438 21.1348 26.3438 21.171 26.352C21.5712 26.3844 21.7414 26.4572 21.8626 26.6027C21.9374 26.6775 21.9598 26.7487 21.9598 26.8272V27.5636C21.9598 27.6526 21.8992 27.7661 21.7779 27.8629C21.6686 27.9602 21.4866 28.0247 21.2439 28.0411C21.1953 28.0411 21.159 28.0491 21.1106 28.0491H17.6285V28.8905L17.6288 28.8926ZM31.1056 27.4282C31.1056 28.294 31.7485 28.7795 33.0467 28.8766C33.1679 28.886 33.2891 28.8913 33.4106 28.8926H36.6986V28.0512H33.3863C32.6463 28.0512 32.3672 27.865 32.3672 27.4199V23.0665H31.1054V27.4277L31.1056 27.4282ZM24.0393 27.4719V24.472C24.0393 23.7098 24.5742 23.2475 25.6319 23.1016C25.7449 23.0854 25.8584 23.0774 25.9725 23.0773H28.3676C28.4857 23.0774 28.6032 23.0854 28.7203 23.1016C29.778 23.2475 30.3128 23.7096 30.3128 24.472V27.4719C30.3128 28.0902 30.0856 28.4212 29.5619 28.6369L30.8049 29.7594H29.3398L28.3342 28.8513L27.3219 28.9154H25.9725C25.7415 28.9154 25.4984 28.8829 25.2308 28.8099C24.4266 28.5911 24.0396 28.1694 24.0396 27.4719H24.0393ZM25.4013 27.3971C25.4013 27.4377 25.4135 27.4782 25.4257 27.5269C25.5005 27.8757 25.8268 28.0702 26.3233 28.0702H27.4697L26.4168 27.1193H27.8818L28.7982 27.9487C28.9675 27.8585 29.0787 27.7203 29.1161 27.5433C29.1283 27.5028 29.1283 27.4622 29.1283 27.4216V24.5451C29.1283 24.5128 29.1283 24.4703 29.1161 24.4316C29.0413 24.1074 28.7148 23.9209 28.2286 23.9209H26.3266C25.7657 23.9209 25.4029 24.1641 25.4029 24.5451V27.3993L25.4013 27.3971Z" fill="#E48E00"/>
<path d="M37.808 21.6701C37.0325 21.6492 36.4399 21.7212 35.9334 21.9348C35.7895 21.9957 35.56 21.9971 35.5365 22.1776C35.6155 22.2606 35.628 22.3844 35.6907 22.4864C35.8117 22.6822 36.0161 22.9447 36.198 23.082C36.397 23.2323 36.602 23.3932 36.8157 23.5236C37.1954 23.7551 37.6192 23.8874 37.9846 24.1193C38.2 24.2559 38.414 24.428 38.6242 24.5824C38.7279 24.6588 38.798 24.7774 38.9327 24.8251V24.8031C38.8617 24.7126 38.8436 24.5885 38.7784 24.4944L38.4918 24.2075C38.2113 23.8334 37.8555 23.5085 37.4772 23.2366C37.1755 23.0199 36.5002 22.7273 36.3744 22.376L36.3523 22.3539C36.5663 22.3296 36.8167 22.2523 37.0144 22.1996C37.3459 22.1107 37.6423 22.1336 37.9849 22.0453L38.4481 21.9128V21.8245C38.275 21.6467 38.1516 21.4116 37.9629 21.2509C37.4692 20.8299 36.93 20.4099 36.3751 20.0591C36.0673 19.8646 35.687 19.7385 35.3606 19.5737C35.2508 19.5183 35.058 19.4895 34.9856 19.397C34.8144 19.1786 34.7211 18.9013 34.5889 18.6487C34.3121 18.1156 34.0401 17.533 33.7948 16.9719C33.6274 16.5893 33.518 16.2119 33.3097 15.8686C32.3082 14.2215 31.2301 13.2273 29.5605 12.2505C29.2052 12.0428 28.7775 11.9605 28.3253 11.8533L27.5974 11.8091C27.4494 11.7473 27.2952 11.5659 27.1562 11.478C26.6029 11.1281 25.1841 10.368 24.7744 11.3657C24.5157 11.9967 25.1608 12.6124 25.3919 12.9323C25.5538 13.1568 25.7614 13.4081 25.877 13.6605C25.953 13.8262 25.9664 13.9925 26.0315 14.1681C26.1917 14.5984 26.3312 15.0704 26.5386 15.4697C26.6433 15.6718 26.7589 15.8847 26.8915 16.0655C26.9728 16.1764 27.1122 16.2253 27.1341 16.3966C26.9979 16.5874 26.99 16.883 26.9133 17.1247C26.5688 18.212 26.6987 19.5634 27.2 20.3682C27.354 20.6151 27.7162 21.1449 28.2146 20.9418C28.6503 20.7641 28.5513 20.214 28.6778 19.7284C28.7058 19.618 28.6887 19.5375 28.744 19.4637V19.4858L29.1411 20.2799C29.4347 20.7533 29.9564 21.2481 30.3981 21.582C30.6272 21.755 30.8096 22.0544 31.1039 22.1557V22.1336H31.0819C31.0244 22.0438 30.9347 22.0069 30.8612 21.9353C30.6886 21.7659 30.4965 21.5555 30.3538 21.3616C29.9518 20.8157 29.5968 20.2186 29.2732 19.5965C29.1188 19.2996 28.9843 18.972 28.8544 18.6698C28.8043 18.5533 28.8048 18.3772 28.7001 18.3168C28.5574 18.5384 28.3472 18.7172 28.2369 18.9787C28.0603 19.3967 28.0375 19.9063 27.9722 20.435C27.9336 20.4488 27.9507 20.4393 27.9281 20.4571C27.6211 20.383 27.5129 20.0666 27.3989 19.7951C27.1101 19.1086 27.0567 18.0037 27.3106 17.2138C27.3761 17.0095 27.6733 16.3656 27.5531 16.1767C27.4957 15.9884 27.3063 15.8774 27.2002 15.7353C27.0694 15.5575 26.938 15.3229 26.8474 15.1174C26.6109 14.5824 26.5006 13.9819 26.2519 13.4407C26.133 13.1821 25.9321 12.9206 25.7668 12.6923C25.584 12.4379 25.3792 12.25 25.2376 11.944C25.1871 11.8345 25.1187 11.6596 25.1934 11.5468C25.197 11.5306 25.2028 11.5151 25.2107 11.5007C25.2188 11.4861 25.2286 11.473 25.2403 11.4612C25.252 11.4495 25.2652 11.4396 25.2797 11.4316C25.2943 11.4237 25.3097 11.4179 25.3258 11.4143C25.4538 11.3158 25.8102 11.447 25.9433 11.5026C26.2968 11.6497 26.5923 11.7896 26.8919 11.9882C27.0358 12.0817 27.1812 12.268 27.3549 12.3192H27.5531C27.8636 12.3908 28.2115 12.3417 28.5013 12.4296C29.0141 12.5855 29.4733 12.8282 29.8907 13.0915C31.1621 13.8945 32.2013 15.0376 32.9123 16.403C33.0268 16.6224 33.0762 16.8321 33.1769 17.0648C33.3802 17.5325 33.6363 18.0176 33.8386 18.4768C34.0405 18.9351 34.2369 19.3972 34.5223 19.7785C34.6723 19.9787 35.2516 20.0865 35.5147 20.1975C35.6993 20.2756 36.0015 20.357 36.1764 20.4623C36.5102 20.6638 36.8338 20.9038 37.147 21.1246C37.3034 21.2349 37.7847 21.4769 37.8085 21.6761L37.808 21.6701Z" fill="#00618A"/>
<path fill-rule="evenodd" clip-rule="evenodd" d="M27.9507 13.2643C27.789 13.2614 27.6747 13.2819 27.5536 13.3085V13.3305H27.5757C27.6528 13.4892 27.789 13.5912 27.8844 13.7277L28.105 14.191L28.1271 14.1689C28.2635 14.0725 28.3263 13.9186 28.3253 13.6834C28.2705 13.6257 28.2625 13.5536 28.215 13.4847C28.152 13.393 28.0279 13.3411 27.9503 13.264L27.9507 13.2643Z" fill="#00618A"/>
<path fill-rule="evenodd" clip-rule="evenodd" d="M37.2919 28.0273C37.2919 28.5829 37.7309 28.9575 38.2217 28.9575C38.7126 28.9575 39.1515 28.5829 39.1515 28.0273C39.1515 27.4717 38.7126 27.0971 38.2217 27.0971C37.7309 27.0971 37.2919 27.4717 37.2919 28.0273ZM38.9433 28.0273C38.9433 28.449 38.621 28.7641 38.2214 28.7641C37.8174 28.7641 37.4995 28.449 37.4995 28.0273C37.4995 27.6056 37.817 27.2905 38.2214 27.2905C38.6207 27.2905 38.9433 27.6056 38.9433 28.0273ZM38.4719 28.5583H38.6801L38.3752 28.092C38.5389 28.0746 38.6627 27.9951 38.6627 27.8017C38.6627 27.5858 38.5262 27.4967 38.2636 27.4967H37.8494V28.5585H38.0279V28.0995H38.1941L38.4718 28.5585L38.4719 28.5583ZM38.0279 27.9502V27.6452H38.2337C38.3403 27.6452 38.4693 27.6651 38.4693 27.7893C38.4693 27.938 38.3528 27.9506 38.2188 27.9506H38.0279V27.9502Z" fill="#E48E00"/>
</svg>
