<svg width="40" height="41" viewBox="0 0 40 41" fill="none" xmlns="http://www.w3.org/2000/svg">
<mask id="mask0_82_117" style="mask-type:luminance" maskUnits="userSpaceOnUse" x="0" y="1" width="40" height="39">
<path d="M0.986938 1.48761H39.0069V39.5076H0.986938V1.48761Z" fill="white"/>
</mask>
<g mask="url(#mask0_82_117)">
<path d="M38.2896 18.8047L21.6903 2.20545C21.662 2.17712 21.633 2.14941 21.6033 2.12253C21.5737 2.09566 21.5433 2.06941 21.5123 2.04399C21.4814 2.01858 21.4498 1.99399 21.4176 1.97003C21.3854 1.94618 21.3527 1.92316 21.3194 1.90087C21.2861 1.87858 21.2522 1.85712 21.2178 1.8366C21.1836 1.81597 21.1487 1.79618 21.1133 1.77733C21.078 1.75837 21.0422 1.74035 21.0059 1.72326C20.9698 1.70608 20.9331 1.68993 20.8962 1.67451C20.8591 1.6592 20.8218 1.64483 20.7841 1.63128C20.7463 1.61774 20.7082 1.60524 20.6699 1.59358C20.6316 1.58191 20.593 1.57128 20.5541 1.56149C20.5152 1.55181 20.4762 1.54306 20.4369 1.53514C20.3976 1.52733 20.3581 1.52056 20.3184 1.51462C20.2789 1.50878 20.2391 1.50389 20.1992 1.49993C20.1593 1.49597 20.1194 1.49305 20.0794 1.49108C20.0394 1.4891 19.9993 1.48816 19.9592 1.48816C19.9192 1.48816 19.8791 1.4891 19.8391 1.49108C19.7991 1.49305 19.7592 1.49597 19.7193 1.49993C19.6794 1.50389 19.6396 1.50878 19.6 1.51462C19.5603 1.52056 19.5208 1.52733 19.4816 1.53514C19.4423 1.54306 19.4032 1.55181 19.3644 1.56149C19.3254 1.57128 19.2869 1.58191 19.2486 1.59358C19.2102 1.60524 19.1722 1.61774 19.1344 1.63128C19.0967 1.64483 19.0593 1.6592 19.0223 1.67451C18.9853 1.68993 18.9487 1.70608 18.9125 1.72326C18.8763 1.74035 18.8404 1.75837 18.8051 1.77733C18.7698 1.79618 18.7349 1.81597 18.7006 1.8366C18.6663 1.85712 18.6324 1.87858 18.5991 1.90087C18.5657 1.92316 18.533 1.94618 18.5008 1.97003C18.4687 1.99399 18.4371 2.01858 18.4062 2.04399C18.3751 2.06941 18.3448 2.09566 18.3151 2.12253C18.2854 2.14941 18.2565 2.17712 18.2281 2.20545L14.7826 5.65097L19.1549 10.0233C20.1719 9.6668 21.3363 9.91045 22.1466 10.7208C22.1945 10.7687 22.2406 10.8184 22.2851 10.8696C22.3296 10.9208 22.3722 10.9736 22.4129 11.0277C22.4538 11.082 22.4925 11.1375 22.5294 11.1945C22.5663 11.2514 22.6012 11.3095 22.634 11.3689C22.6668 11.4283 22.6975 11.4887 22.7261 11.5502C22.7547 11.6117 22.7811 11.6742 22.8053 11.7375C22.8295 11.8009 22.8515 11.865 22.8713 11.9299C22.8911 11.9948 22.9084 12.0602 22.9237 12.1264C22.9388 12.1925 22.9517 12.2591 22.9621 12.3261C22.9726 12.3931 22.9808 12.4605 22.9866 12.528C22.9924 12.5956 22.9958 12.6633 22.997 12.7311C22.998 12.7989 22.9967 12.8667 22.993 12.9344C22.9894 13.0021 22.9833 13.0697 22.975 13.137C22.9666 13.2043 22.9558 13.2712 22.9428 13.3377C22.9297 13.4043 22.9144 13.4703 22.8967 13.5359C22.879 13.6014 22.8591 13.6662 22.8369 13.7302L27.0512 17.9445C28.0705 17.5928 29.2468 17.8197 30.0606 18.636C30.0944 18.6697 30.1273 18.7042 30.1594 18.7396C30.1914 18.7749 30.2225 18.811 30.2528 18.8478C30.2831 18.8847 30.3125 18.9223 30.3408 18.9607C30.3693 18.999 30.3968 19.0379 30.4233 19.0776C30.4498 19.1172 30.4753 19.1575 30.4999 19.1985C30.5244 19.2394 30.5479 19.2809 30.5704 19.3229C30.5929 19.365 30.6144 19.4075 30.6348 19.4507C30.6552 19.4938 30.6745 19.5374 30.6928 19.5815C30.7111 19.6256 30.7282 19.67 30.7443 19.7149C30.7604 19.7598 30.7753 19.8051 30.7892 19.8508C30.8031 19.8964 30.8158 19.9424 30.8274 19.9887C30.839 20.0349 30.8495 20.0815 30.8588 20.1283C30.8681 20.175 30.8763 20.222 30.8832 20.2692C30.8902 20.3164 30.8962 20.3638 30.9008 20.4112C30.9054 20.4587 30.909 20.5063 30.9114 20.5539C30.9137 20.6015 30.9149 20.6492 30.9149 20.6969C30.9149 20.7446 30.9137 20.7923 30.9114 20.8399C30.9091 20.8876 30.9055 20.9351 30.9008 20.9826C30.8962 21.0301 30.8903 21.0774 30.8833 21.1246C30.8764 21.1718 30.8682 21.2188 30.8589 21.2656C30.8496 21.3124 30.8392 21.3589 30.8275 21.4051C30.816 21.4515 30.8032 21.4974 30.7894 21.5431C30.7755 21.5887 30.7606 21.634 30.7445 21.6789C30.7284 21.7239 30.7113 21.7684 30.693 21.8124C30.6748 21.8565 30.6554 21.9 30.635 21.9432C30.6147 21.9863 30.5932 22.0289 30.5707 22.071C30.5482 22.1131 30.5247 22.1545 30.5002 22.1954C30.4756 22.2364 30.4501 22.2767 30.4237 22.3164C30.3971 22.356 30.3697 22.395 30.3413 22.4333C30.3128 22.4716 30.2834 22.5092 30.2532 22.5461C30.2229 22.5829 30.1918 22.6191 30.1597 22.6544C30.1277 22.6897 30.0948 22.7243 30.0611 22.7581C30.0273 22.7917 29.9928 22.8246 29.9574 22.8567C29.9221 22.8887 29.8859 22.9198 29.8491 22.95C29.8122 22.9803 29.7746 23.0097 29.7363 23.0381C29.6979 23.0665 29.659 23.094 29.6193 23.1204C29.5796 23.1469 29.5394 23.1724 29.4984 23.197C29.4575 23.2215 29.4159 23.2449 29.3739 23.2674C29.3319 23.2899 29.2893 23.3114 29.2461 23.3317C29.2029 23.3521 29.1594 23.3715 29.1153 23.3897C29.0713 23.4079 29.0267 23.4251 28.9818 23.4412C28.9369 23.4572 28.8916 23.4721 28.8459 23.486C28.8003 23.4998 28.7543 23.5125 28.708 23.5241C28.6618 23.5357 28.6152 23.5461 28.5684 23.5554C28.5217 23.5647 28.4746 23.5728 28.4274 23.5798C28.3802 23.5868 28.3329 23.5926 28.2854 23.5973C28.2379 23.6019 28.1904 23.6054 28.1427 23.6077C28.0951 23.61 28.0474 23.6113 27.9997 23.6112C27.952 23.6112 27.9044 23.61 27.8567 23.6076C27.8091 23.6052 27.7615 23.6018 27.7141 23.597C27.6666 23.5923 27.6193 23.5865 27.5721 23.5795C27.5249 23.5724 27.4779 23.5643 27.4311 23.5549C27.3843 23.5457 27.3378 23.5351 27.2915 23.5236C27.2452 23.5119 27.1993 23.4992 27.1537 23.4853C27.108 23.4715 27.0627 23.4565 27.0178 23.4403C26.9729 23.4243 26.9284 23.4071 26.8844 23.3888C26.8403 23.3706 26.7967 23.3512 26.7536 23.3308C26.7104 23.3103 26.6679 23.2889 26.6258 23.2664C26.5838 23.2439 26.5423 23.2203 26.5014 23.1958C26.4605 23.1713 26.4202 23.1458 26.3805 23.1192C26.3409 23.0926 26.3019 23.0651 26.2637 23.0367C26.2253 23.0083 26.1877 22.9789 26.1509 22.9487C26.1141 22.9184 26.0779 22.8872 26.0426 22.8551C26.0073 22.8231 25.9727 22.7901 25.9391 22.7564C25.0837 21.901 24.8721 20.6416 25.3046 19.5876L21.3743 15.6573V26C21.6615 26.1421 21.9189 26.3259 22.1466 26.5513C22.1803 26.585 22.2131 26.6195 22.2452 26.6548C22.2772 26.6901 22.3083 26.7263 22.3386 26.7632C22.3689 26.8 22.3981 26.8375 22.4266 26.8759C22.455 26.9142 22.4824 26.9532 22.5089 26.9928C22.5354 27.0324 22.5609 27.0727 22.5854 27.1136C22.6099 27.1545 22.6334 27.196 22.6559 27.2381C22.6783 27.2801 22.6998 27.3226 22.7202 27.3658C22.7405 27.4089 22.7599 27.4524 22.7781 27.4965C22.7964 27.5406 22.8136 27.585 22.8296 27.6299C22.8456 27.6748 22.8606 27.7201 22.8745 27.7658C22.8883 27.8114 22.9011 27.8573 22.9126 27.9036C22.9242 27.9498 22.9346 27.9963 22.944 28.0431C22.9532 28.0898 22.9614 28.1368 22.9683 28.184C22.9754 28.2312 22.9813 28.2785 22.9859 28.3259C22.9905 28.3734 22.9941 28.4209 22.9965 28.4686C22.9988 28.5162 22.9999 28.5638 22.9999 28.6115C22.9999 28.6592 22.9988 28.7068 22.9965 28.7544C22.9941 28.8021 22.9905 28.8496 22.9859 28.8971C22.9813 28.9445 22.9754 28.9918 22.9683 29.039C22.9614 29.0862 22.9532 29.1332 22.944 29.1799C22.9346 29.2267 22.9242 29.2732 22.9126 29.3194C22.9011 29.3657 22.8883 29.4116 22.8745 29.4572C22.8606 29.5028 22.8456 29.5482 22.8296 29.5931C22.8136 29.6379 22.7964 29.6824 22.7781 29.7265C22.7599 29.7706 22.7405 29.8141 22.7202 29.8572C22.6998 29.9003 22.6783 29.9428 22.6559 29.9849C22.6334 30.027 22.6099 30.0685 22.5854 30.1094C22.5609 30.1502 22.5354 30.1906 22.5089 30.2301C22.4824 30.2698 22.455 30.3088 22.4266 30.3471C22.3981 30.3854 22.3689 30.4229 22.3386 30.4598C22.3083 30.4967 22.2772 30.5328 22.2452 30.5682C22.2131 30.6035 22.1803 30.6379 22.1466 30.6717C22.1128 30.7054 22.0783 30.7383 22.043 30.7703C22.0076 30.8023 21.9716 30.8335 21.9347 30.8637C21.8978 30.894 21.8602 30.9233 21.822 30.9517C21.7837 30.9801 21.7447 31.0075 21.705 31.034C21.6654 31.0606 21.6251 31.0861 21.5843 31.1106C21.5433 31.135 21.5019 31.1586 21.4598 31.1811C21.4177 31.2035 21.3752 31.2249 21.3321 31.2453C21.289 31.2658 21.2454 31.285 21.2014 31.3033C21.1573 31.3215 21.1128 31.3387 21.0679 31.3547C21.023 31.3709 20.9777 31.3858 20.9321 31.3996C20.8865 31.4135 20.8405 31.4262 20.7943 31.4377C20.748 31.4493 20.7016 31.4598 20.6548 31.4691C20.608 31.4784 20.5611 31.4865 20.5139 31.4936C20.4667 31.5006 20.4194 31.5064 20.372 31.5111C20.3245 31.5158 20.277 31.5192 20.2293 31.5216C20.1817 31.5239 20.1341 31.525 20.0864 31.525C20.0387 31.525 19.9911 31.5239 19.9433 31.5216C19.8957 31.5192 19.8482 31.5158 19.8007 31.5111C19.7533 31.5064 19.7061 31.5006 19.6589 31.4936C19.6117 31.4865 19.5647 31.4784 19.5179 31.4691C19.4712 31.4598 19.4247 31.4493 19.3784 31.4377C19.3322 31.4262 19.2863 31.4135 19.2406 31.3996C19.195 31.3858 19.1497 31.3708 19.1048 31.3547C19.0599 31.3387 19.0154 31.3215 18.9714 31.3033C18.9273 31.285 18.8838 31.2658 18.8406 31.2453C18.7975 31.2249 18.755 31.2035 18.7129 31.1811C18.6708 31.1586 18.6294 31.135 18.5884 31.1106C18.5476 31.0861 18.5073 31.0606 18.4676 31.034C18.428 31.0075 18.3891 30.9801 18.3507 30.9517C18.3124 30.9233 18.2749 30.894 18.238 30.8637C18.2012 30.8335 18.165 30.8023 18.1297 30.7703C18.0944 30.7383 18.0599 30.7054 18.0262 30.6717C17.9924 30.6381 17.9595 30.6035 17.9274 30.5682C17.8953 30.5328 17.8642 30.4968 17.8339 30.4599C17.8037 30.4232 17.7743 30.3856 17.7458 30.3472C17.7174 30.309 17.6899 30.27 17.6633 30.2303C17.6369 30.1908 17.6113 30.1504 17.5868 30.1096C17.5622 30.0687 17.5387 30.0272 17.5162 29.9851C17.4937 29.9432 17.4722 29.9006 17.4518 29.8574C17.4314 29.8143 17.412 29.7708 17.3938 29.7267C17.3755 29.6826 17.3583 29.6382 17.3422 29.5933C17.3262 29.5484 17.3112 29.5031 17.2973 29.4574C17.2834 29.4118 17.2707 29.3659 17.2591 29.3196C17.2475 29.2734 17.2371 29.2268 17.2277 29.18C17.2184 29.1333 17.2102 29.0863 17.2032 29.0391C17.1963 28.9919 17.1904 28.9446 17.1857 28.8971C17.1811 28.8497 17.1775 28.8021 17.1752 28.7545C17.1728 28.7069 17.1717 28.6592 17.1717 28.6115C17.1717 28.5638 17.1728 28.5162 17.1752 28.4685C17.1775 28.4209 17.1811 28.3733 17.1857 28.3259C17.1904 28.2784 17.1963 28.2311 17.2032 28.1839C17.2102 28.1367 17.2184 28.0897 17.2277 28.0429C17.2371 27.9962 17.2475 27.9496 17.2591 27.9034C17.2707 27.8571 17.2834 27.8112 17.2973 27.7656C17.3112 27.7199 17.3262 27.6746 17.3422 27.6297C17.3583 27.5848 17.3755 27.5403 17.3938 27.4963C17.412 27.4522 17.4314 27.4087 17.4518 27.3656C17.4722 27.3224 17.4937 27.2799 17.5162 27.2378C17.5387 27.1958 17.5622 27.1543 17.5868 27.1134C17.6113 27.0725 17.6369 27.0322 17.6633 26.9926C17.6899 26.9529 17.7174 26.914 17.7458 26.8758C17.7743 26.8374 17.8037 26.7998 17.8339 26.7631C17.8642 26.7262 17.8953 26.6901 17.9274 26.6548C17.9595 26.6195 17.9924 26.5849 18.0262 26.5513C18.3077 26.2709 18.6202 26.0583 18.9802 25.9157V15.4768C18.6332 15.3342 18.3077 15.1239 18.0262 14.8412C17.9753 14.7904 17.9265 14.7378 17.8796 14.6836C17.8327 14.6292 17.7879 14.5732 17.7451 14.5156C17.7024 14.4578 17.6618 14.3987 17.6234 14.3381C17.585 14.2774 17.549 14.2155 17.5151 14.1521C17.4814 14.0888 17.4499 14.0243 17.4209 13.9586C17.3919 13.893 17.3653 13.8264 17.3413 13.7587C17.3171 13.6911 17.2955 13.6227 17.2766 13.5535C17.2575 13.4843 17.2411 13.4144 17.2272 13.344C17.2133 13.2736 17.2021 13.2027 17.1934 13.1315C17.1848 13.0602 17.1788 12.9888 17.1754 12.917C17.1721 12.8453 17.1715 12.7736 17.1734 12.7019C17.1753 12.6301 17.18 12.5585 17.1872 12.4871C17.1945 12.4157 17.2044 12.3446 17.2169 12.274C17.2294 12.2033 17.2445 12.1332 17.2622 12.0636C17.2799 11.994 17.3002 11.9252 17.323 11.8571C17.3457 11.7891 17.3711 11.722 17.3989 11.6558L13.0859 7.34524L1.70365 18.7156C1.67532 18.7439 1.64771 18.7729 1.62074 18.8026C1.59376 18.8323 1.56761 18.8626 1.54219 18.8936C1.51667 18.9246 1.49209 18.9562 1.46813 18.9884C1.44428 19.0206 1.42115 19.0533 1.39886 19.0866C1.37657 19.1199 1.35511 19.1538 1.33449 19.1882C1.31386 19.2225 1.29417 19.2574 1.27521 19.2927C1.25636 19.3281 1.23824 19.3639 1.22115 19.4001C1.20396 19.4363 1.18771 19.4729 1.1724 19.51C1.15699 19.547 1.14261 19.5844 1.12907 19.6221C1.11553 19.6599 1.10303 19.6979 1.09136 19.7363C1.07969 19.7746 1.06896 19.8133 1.05928 19.8521C1.04949 19.8911 1.04074 19.9301 1.03292 19.9694C1.02511 20.0088 1.01824 20.0483 1.0123 20.0879C1.00646 20.1275 1.00157 20.1673 0.997611 20.2072C0.993652 20.2471 0.990736 20.2871 0.988757 20.3271C0.986777 20.3671 0.98584 20.4072 0.98584 20.4473C0.98584 20.4874 0.986777 20.5274 0.988757 20.5674C0.990736 20.6075 0.993652 20.6475 0.997611 20.6873C1.00157 20.7272 1.00646 20.767 1.0123 20.8067C1.01824 20.8464 1.02511 20.8859 1.03292 20.9251C1.04074 20.9644 1.04949 21.0036 1.05928 21.0424C1.06896 21.0813 1.07969 21.1199 1.09136 21.1583C1.10303 21.1967 1.11553 21.2347 1.12907 21.2724C1.14261 21.3101 1.15699 21.3475 1.1724 21.3846C1.18771 21.4216 1.20396 21.4583 1.22115 21.4945C1.23824 21.5308 1.25636 21.5665 1.27521 21.6018C1.29417 21.6372 1.31386 21.672 1.33449 21.7064C1.35511 21.7408 1.37657 21.7746 1.39886 21.8079C1.42115 21.8413 1.44428 21.8741 1.46813 21.9063C1.49209 21.9385 1.51667 21.97 1.54219 22.001C1.56761 22.0319 1.59376 22.0623 1.62074 22.092C1.64771 22.1217 1.67532 22.1507 1.70365 22.179L18.3042 38.7771C18.3325 38.8054 18.3615 38.833 18.3912 38.8599C18.4208 38.8869 18.4512 38.9131 18.4822 38.9385C18.5131 38.9639 18.5447 38.9886 18.5769 39.0124C18.6091 39.0363 18.6418 39.0594 18.6751 39.0817C18.7084 39.1039 18.7423 39.1253 18.7766 39.146C18.8109 39.1666 18.8458 39.1863 18.8812 39.2052C18.9165 39.2241 18.9523 39.2421 18.9886 39.2592C19.0247 39.2764 19.0614 39.2926 19.0983 39.3079C19.1353 39.3233 19.1727 39.3377 19.2104 39.3512C19.2482 39.3647 19.2863 39.3773 19.3246 39.3889C19.3629 39.4006 19.4015 39.4113 19.4404 39.421C19.4793 39.4308 19.5183 39.4395 19.5576 39.4473C19.5969 39.4551 19.6364 39.462 19.6761 39.4678C19.7156 39.4738 19.7554 39.4787 19.7953 39.4826C19.8351 39.4865 19.8751 39.4895 19.9151 39.4914C19.9551 39.4934 19.9952 39.4944 20.0352 39.4944C20.0753 39.4944 20.1154 39.4934 20.1554 39.4914C20.1954 39.4895 20.2353 39.4865 20.2752 39.4826C20.3151 39.4787 20.3549 39.4738 20.3945 39.4678C20.4342 39.462 20.4737 39.4551 20.5129 39.4473C20.5522 39.4395 20.5913 39.4308 20.6301 39.421C20.6691 39.4113 20.7076 39.4006 20.7459 39.3889C20.7843 39.3773 20.8223 39.3647 20.8601 39.3512C20.8978 39.3377 20.9351 39.3233 20.9722 39.3079C21.0092 39.2926 21.0458 39.2764 21.082 39.2592C21.1182 39.2421 21.1541 39.2241 21.1894 39.2052C21.2247 39.1863 21.2596 39.1666 21.2939 39.146C21.3282 39.1253 21.3621 39.1039 21.3954 39.0817C21.4288 39.0594 21.4615 39.0363 21.4937 39.0124C21.5258 38.9886 21.5574 38.9639 21.5883 38.9385C21.6194 38.9131 21.6497 38.8869 21.6794 38.8599C21.7091 38.833 21.738 38.8054 21.7664 38.7771L38.2896 22.2799C38.3179 22.2517 38.3456 22.2226 38.3726 22.1929C38.3995 22.1633 38.4257 22.1329 38.4512 22.102C38.4766 22.071 38.5013 22.0394 38.5251 22.0072C38.5491 21.975 38.5721 21.9423 38.5944 21.909C38.6167 21.8757 38.6381 21.8418 38.6588 21.8074C38.6794 21.7731 38.6992 21.7382 38.718 21.7028C38.737 21.6675 38.755 21.6317 38.7722 21.5954C38.7893 21.5592 38.8055 21.5226 38.8209 21.4856C38.8363 21.4486 38.8507 21.4112 38.8642 21.3735C38.8777 21.3357 38.8903 21.2976 38.902 21.2593C38.9137 21.221 38.9243 21.1823 38.9341 21.1435C38.9438 21.1045 38.9526 21.0654 38.9604 21.0262C38.9682 20.9868 38.9751 20.9473 38.9809 20.9076C38.9869 20.8681 38.9918 20.8283 38.9957 20.7884C38.9996 20.7485 39.0026 20.7085 39.0046 20.6685C39.0066 20.6285 39.0075 20.5884 39.0075 20.5483C39.0075 20.5082 39.0066 20.4682 39.0046 20.4281C39.0026 20.3881 38.9996 20.3481 38.9957 20.3082C38.9918 20.2683 38.9869 20.2286 38.9809 20.1889C38.9751 20.1492 38.9682 20.1097 38.9604 20.0704C38.9526 20.0311 38.9438 19.992 38.9341 19.9532C38.9243 19.9143 38.9137 19.8757 38.902 19.8373C38.8903 19.7989 38.8777 19.7609 38.8642 19.7232C38.8507 19.6854 38.8363 19.6481 38.8209 19.611C38.8055 19.574 38.7893 19.5373 38.7722 19.5011C38.755 19.4648 38.737 19.4291 38.718 19.3937C38.6992 19.3584 38.6794 19.3235 38.6588 19.2891C38.6381 19.2547 38.6167 19.221 38.5944 19.1876C38.5721 19.1543 38.5491 19.1215 38.5251 19.0893C38.5013 19.0571 38.4766 19.0256 38.4512 18.9946C38.4257 18.9637 38.3995 18.9333 38.3726 18.9036C38.3456 18.8739 38.3179 18.8449 38.2896 18.8166" fill="#F03C2E"/>
</g>
</svg>
