<svg width="40" height="40" viewBox="0 0 40 40" fill="none" xmlns="http://www.w3.org/2000/svg">
<g clip-path="url(#clip0_113_504)">
<path d="M10.1596 26.158L4 19.9984L24 0H36.3176L10.1596 26.158ZM36.3176 18.4544H24L19.386 23.0684L25.5456 29.2284" fill="#42A5F5" fill-opacity="0.8"/>
<path d="M19.386 35.386L24 40H36.3176L25.5456 29.228" fill="#0D47A1"/>
<path d="M13.2412 29.2312L19.3908 23.08L25.5408 29.23L19.3908 35.3816L13.2412 29.2312Z" fill="#42A5F5"/>
<path d="M19.3908 35.3812L25.5408 29.2312L26.3992 30.0896L20.2492 36.24L19.3908 35.3812Z" fill="url(#paint0_linear_113_504)"/>
<path d="M19.386 35.386L28.5252 32.2284L25.5456 29.2264" fill="url(#paint1_linear_113_504)"/>
</g>
<defs>
<linearGradient id="paint0_linear_113_504" x1="22.4668" y1="32.3052" x2="23.3256" y2="33.1636" gradientUnits="userSpaceOnUse">
<stop offset="0.2" stop-opacity="0.15"/>
<stop offset="0.85" stop-color="#616161" stop-opacity="0.01"/>
</linearGradient>
<linearGradient id="paint1_linear_113_504" x1="19.3884" y1="32.3064" x2="28.5272" y2="32.3064" gradientUnits="userSpaceOnUse">
<stop offset="0.2" stop-opacity="0.55"/>
<stop offset="0.85" stop-color="#616161" stop-opacity="0.01"/>
</linearGradient>
<clipPath id="clip0_113_504">
<rect width="40" height="40" fill="white"/>
</clipPath>
</defs>
</svg>
